<svg width="15" height="23" viewBox="0 0 15 23" fill="none" xmlns="http://www.w3.org/2000/svg">
<path d="M7.06412 10.4626C7.85947 10.4626 8.63696 10.1755 9.29827 9.63757C9.95959 9.09963 10.475 8.33504 10.7794 7.44049C11.0838 6.54593 11.1634 5.56158 11.0082 4.61192C10.8531 3.66226 10.4701 2.78995 9.90766 2.10528C9.34526 1.42062 8.62872 0.954356 7.84865 0.765457C7.06858 0.576558 6.26001 0.673508 5.5252 1.04405C4.79039 1.41458 4.16234 2.04207 3.72046 2.84715C3.27859 3.65223 3.04274 4.59875 3.04274 5.56701C3.04274 6.86541 3.46642 8.11063 4.22057 9.02874C4.97473 9.94685 5.99758 10.4626 7.06412 10.4626ZM7.06412 3.1192C7.46179 3.1192 7.85054 3.26276 8.1812 3.53173C8.51185 3.8007 8.76957 4.183 8.92175 4.63027C9.07394 5.07755 9.11375 5.56973 9.03617 6.04456C8.95859 6.51938 8.76709 6.95554 8.48589 7.29787C8.20469 7.64021 7.84642 7.87334 7.45638 7.96779C7.06635 8.06224 6.66207 8.01376 6.29466 7.82849C5.92726 7.64323 5.61323 7.32948 5.39229 6.92694C5.17135 6.5244 5.05343 6.05114 5.05343 5.56701C5.05343 4.91781 5.26527 4.2952 5.64235 3.83615C6.01942 3.37709 6.53085 3.1192 7.06412 3.1192Z" fill="#00D1FF"/>
<path d="M7.06411 12.9106C5.19768 12.9106 3.40768 13.8133 2.08791 15.42C0.768142 17.0266 0.0267029 19.2058 0.0267029 21.478C0.0267029 21.8026 0.132623 22.1139 0.321162 22.3434C0.5097 22.5729 0.765413 22.7019 1.03205 22.7019C1.29868 22.7019 1.55439 22.5729 1.74293 22.3434C1.93147 22.1139 2.03739 21.8026 2.03739 21.478C2.03739 19.855 2.56699 18.2985 3.50968 17.1508C4.45238 16.0032 5.73094 15.3585 7.06411 15.3585C8.39728 15.3585 9.67585 16.0032 10.6185 17.1508C11.5612 18.2985 12.0908 19.855 12.0908 21.478C12.0908 21.8026 12.1968 22.1139 12.3853 22.3434C12.5738 22.5729 12.8295 22.7019 13.0962 22.7019C13.3628 22.7019 13.6185 22.5729 13.8071 22.3434C13.9956 22.1139 14.1015 21.8026 14.1015 21.478C14.1015 19.2058 13.3601 17.0266 12.0403 15.42C10.7205 13.8133 8.93055 12.9106 7.06411 12.9106Z" fill="#00D1FF"/>
</svg>
