<svg width="18" height="17" viewBox="0 0 18 17" fill="none" xmlns="http://www.w3.org/2000/svg">
<path d="M14.5763 0.980957H3.13062C2.48014 0.980957 1.8563 1.29554 1.39634 1.85549C0.936381 2.41544 0.677979 3.1749 0.677979 3.9668V13.9196C0.677979 14.7115 0.936381 15.471 1.39634 16.0309C1.8563 16.5909 2.48014 16.9055 3.13062 16.9055H14.5763C15.2268 16.9055 15.8506 16.5909 16.3105 16.0309C16.7705 15.471 17.0289 14.7115 17.0289 13.9196V3.9668C17.0289 3.1749 16.7705 2.41544 16.3105 1.85549C15.8506 1.29554 15.2268 0.980957 14.5763 0.980957ZM14.0285 2.97152L8.85344 7.6991L3.67837 2.97152H14.0285ZM14.5763 14.9149H3.13062C2.91379 14.9149 2.70585 14.81 2.55253 14.6234C2.39921 14.4367 2.31307 14.1836 2.31307 13.9196V4.21562L8.36292 9.73943C8.50443 9.86864 8.67655 9.93849 8.85344 9.93849C9.03034 9.93849 9.20246 9.86864 9.34397 9.73943L15.3938 4.21562V13.9196C15.3938 14.1836 15.3077 14.4367 15.1544 14.6234C15.001 14.81 14.7931 14.9149 14.5763 14.9149Z" fill="#00D1FF"/>
</svg>
